<svg width="24" height="24" viewBox="0 0 24 24" fill="none" xmlns="http://www.w3.org/2000/svg">
    <rect width="24" height="24" rx="4" fill="#45C65A"/>
    <path fill-rule="evenodd" clip-rule="evenodd" d="M19.3846 7.07692C19.3846 6.4 18.8308 5.84615 18.1538 5.84615H5.84616C5.16923 5.84615 4.61539 6.4 4.61539 7.07692V16.9231C4.61539 17.6 5.16923 18.1538 5.84616 18.1538H18.1538C18.8308 18.1538 19.3846 17.6 19.3846 16.9231V7.07692ZM16.1846 15.6923H7.26154C6.89231 15.6923 6.67693 15.2923 6.86154 14.9846L9.56923 10.2769C9.69231 10.0615 9.96923 10.0615 10.0923 10.2769L11.7231 13.0769C11.8462 13.2615 12.1231 13.2923 12.2462 13.1077L13.5692 11.2C13.6923 11.0154 13.9692 11.0154 14.0923 11.2L16.5231 15.0769C16.7077 15.3538 16.5231 15.6923 16.1846 15.6923ZM15.3846 10.1538C14.7077 10.1538 14.1538 9.6 14.1538 8.92308C14.1538 8.24615 14.7077 7.69231 15.3846 7.69231C16.0615 7.69231 16.6154 8.24615 16.6154 8.92308C16.6154 9.6 16.0615 10.1538 15.3846 10.1538Z" fill="white"/>
</svg>